<?xml version="1.0" encoding="iso-8859-1"?>
<!-- Generator: Adobe Illustrator 19.0.0, SVG Export Plug-In . SVG Version: 6.00 Build 0)  -->
<svg fill="#fff" version="1.1" id="Layer_1" xmlns="http://www.w3.org/2000/svg" xmlns:xlink="http://www.w3.org/1999/xlink" x="0px" y="0px"
	 viewBox="0 0 496 496" style="enable-background:new 0 0 496 496;" xml:space="preserve">
<g>
	<g>
		<g>
			<path  d="M464,272c0-24.784-14.648-47.344-36.592-57.808C430.432,207.216,432,199.688,432,192
				c0-25.736-17.096-47.464-41.08-53.992c0.72-3.288,1.08-6.632,1.08-10.008c0-26.472-21.528-48-48-48h-42.664l19.2-14.4
				c4.672-3.504,7.464-9.088,7.464-14.936C328,40.376,319.624,32,309.336,32h-32.392l-10.208-20.432C263.152,4.44,255.976,0,248,0
				s-15.16,4.44-18.736,11.568L219.056,32h-32.392C176.376,32,168,40.376,168,50.664c0,5.848,2.792,11.432,7.472,14.936l19.2,14.4
				H152c-26.472,0-48,21.528-48,48c0,3.376,0.36,6.72,1.08,10.008C81.096,144.536,64,166.264,64,192
				c0,7.688,1.568,15.216,4.592,22.192C46.648,224.656,32,247.216,32,272c0,11.44,3.032,22.376,8.632,32H40v24l50.048,168h315.904
				l49.712-165.704L456,304h-0.632C460.96,294.376,464,283.44,464,272z M185.064,52.808C184.4,52.304,184,51.504,184,50.664
				c0-1.472,1.192-2.664,2.664-2.664h42.28l14.632-29.256c1.688-3.392,7.16-3.384,8.84-0.008L267.056,48h42.28
				c1.472,0,2.664,1.192,2.664,2.664c0,0.832-0.4,1.64-1.064,2.144l-31.52,23.64l7.072,49.504c0.096,0.672-0.176,1.144-0.424,1.44
				c-0.448,0.504-2,0.896-2.752-0.056L248,83.192l-35.304,44.136c-0.768,0.952-2.304,0.56-2.76,0.056
				c-0.24-0.288-0.52-0.768-0.424-1.432l7.072-49.504L185.064,52.808z M101.952,480L56,326.832V320h49.608l36.368,160H101.952z
				 M158.384,480l-36.36-160h54.664l14.544,160H158.384z M240,480h-32.696L192.76,320H240V480z M304.76,480l5.752-63.272
				l-15.936-1.456L288.688,480H256V320h47.24l-7.208,79.272l15.936,1.456L319.304,320h54.664l-36.36,160H304.76z M440,326.832
				L394.048,480h-40.024l36.36-160H440V326.832z M435.672,304H60.328C52.384,295.176,48,283.952,48,272
				c0-21.032,14.072-39.928,34.208-45.96l10.296-3.088l-5.912-8.976C82.28,207.424,80,199.832,80,192
				c0-20.768,15.576-37.88,36.24-39.808l11.104-1.04l-4.528-10.176C120.944,136.792,120,132.424,120,128c0-17.648,14.352-32,32-32
				h45.632l-3.96,27.696c-0.728,5.112,0.808,10.28,4.184,14.176c6.944,7.992,20.688,7.72,27.328-0.544L248,108.808l22.816,28.52
				c3.4,4.24,8.464,6.672,13.896,6.672c5.152,0,10.048-2.232,13.432-6.128c3.384-3.896,4.912-9.072,4.184-14.192L298.368,96H344
				c17.648,0,32,14.352,32,32c0,4.424-0.944,8.792-2.816,12.976l-4.528,10.176l11.104,1.04C400.424,154.12,416,171.232,416,192
				c0,7.832-2.28,15.424-6.592,21.976l-5.912,8.976l10.296,3.088C433.928,232.072,448,250.968,448,272
				C448,283.952,443.616,295.176,435.672,304z"/>
			<path d="M152,184c-13.232,0-24,10.768-24,24s10.768,24,24,24s24-10.768,24-24S165.232,184,152,184z M152,216
				c-4.416,0-8-3.584-8-8s3.584-8,8-8s8,3.584,8,8S156.416,216,152,216z"/>
			<path d="M360,240c-13.232,0-24,10.768-24,24s10.768,24,24,24s24-10.768,24-24S373.232,240,360,240z M360,272
				c-4.416,0-8-3.584-8-8c0-4.416,3.584-8,8-8c4.416,0,8,3.584,8,8C368,268.416,364.416,272,360,272z"/>
			<path d="M296,152c-13.232,0-24,10.768-24,24s10.768,24,24,24s24-10.768,24-24S309.232,152,296,152z M296,184
				c-4.416,0-8-3.584-8-8s3.584-8,8-8c4.416,0,8,3.584,8,8S300.416,184,296,184z"/>
			<rect x="200" y="168" width="16" height="16"/>
			<rect x="248" y="224" width="16" height="16"/>
			<rect x="360" y="176" width="16" height="16"/>
			<rect x="152" y="272" width="16" height="16"/>
			<rect x="80" y="248" width="16" height="16"/>
			<rect x="296" y="272" width="16" height="16"/>
			<rect x="192" y="232" width="16" height="16"/>
			<rect x="408" y="264" width="16" height="16"/>
			<rect x="152" y="120" width="16" height="16"/>
			<rect x="336" y="104" width="16" height="16"/>
		</g>
	</g>
</g>
<g>
</g>
<g>
</g>
<g>
</g>
<g>
</g>
<g>
</g>
<g>
</g>
<g>
</g>
<g>
</g>
<g>
</g>
<g>
</g>
<g>
</g>
<g>
</g>
<g>
</g>
<g>
</g>
<g>
</g>
</svg>
