<?xml version="1.0" encoding="iso-8859-1"?>
<!-- Generator: Adobe Illustrator 18.0.0, SVG Export Plug-In . SVG Version: 6.00 Build 0)  -->
<!DOCTYPE svg PUBLIC "-//W3C//DTD SVG 1.1//EN" "http://www.w3.org/Graphics/SVG/1.1/DTD/svg11.dtd">
<svg version="1.1" id="Capa_1" xmlns="http://www.w3.org/2000/svg" xmlns:xlink="http://www.w3.org/1999/xlink" x="0px" y="0px"
	 viewBox="0 0 56.287 56.287" style="enable-background:new 0 0 56.287 56.287;" xml:space="preserve">
<g>
	<path d="M13,11.183c1.083,0,2.167-0.412,2.993-1.237c0.391-0.39,0.391-1.023,0-1.414c-0.391-0.391-1.024-0.391-1.415,0
		c-0.87,0.869-2.287,0.869-3.157,0c-0.391-0.391-1.024-0.391-1.414,0c-0.391,0.391-0.391,1.023,0,1.414
		C10.832,10.771,11.916,11.183,13,11.183z"/>
	<path d="M17.896,41.762c-0.234-0.5-0.828-0.715-1.33-0.481c-0.5,0.233-0.716,0.829-0.482,1.329l2.764,5.904
		c0.17,0.363,0.53,0.576,0.906,0.576c0.142,0,0.286-0.03,0.423-0.095c0.5-0.233,0.716-0.829,0.482-1.329L17.896,41.762z"/>
	<path d="M43.212,41.281c-0.499-0.235-1.096-0.02-1.33,0.481l-2.764,5.904c-0.234,0.5-0.019,1.096,0.482,1.329
		c0.137,0.064,0.281,0.095,0.423,0.095c0.376,0,0.736-0.213,0.906-0.576l2.764-5.904C43.927,42.11,43.712,41.514,43.212,41.281z"/>
	<path d="M34.65,43.293c-0.546-0.081-1.058,0.288-1.143,0.834l-0.921,5.904c-0.085,0.546,0.289,1.058,0.834,1.143
		c0.052,0.008,0.104,0.012,0.156,0.012c0.484,0,0.91-0.353,0.987-0.846l0.921-5.904C35.568,43.89,35.195,43.378,34.65,43.293z"/>
	<path d="M25.128,43.293c-0.545,0.085-0.919,0.597-0.834,1.143l0.921,5.904c0.077,0.493,0.503,0.846,0.987,0.846
		c0.051,0,0.104-0.004,0.156-0.012c0.545-0.085,0.919-0.597,0.834-1.143l-0.921-5.904C26.185,43.581,25.674,43.212,25.128,43.293z"
		/>
	<path d="M29.891,20.146c4.325,0,8.445-0.554,11.913-1.601c0.529-0.159,0.828-0.717,0.668-1.246
		c-0.16-0.528-0.719-0.826-1.247-0.668c-3.283,0.991-7.203,1.515-11.335,1.515c-0.552,0-1,0.447-1,1S29.339,20.146,29.891,20.146z"
		/>
	<path d="M11.535,27.645c1,0.523,2.07,0.994,3.181,1.398c0.113,0.041,0.229,0.061,0.342,0.061c0.408,0,0.792-0.252,0.939-0.657
		c0.189-0.52-0.078-1.093-0.597-1.282c-1.028-0.375-2.017-0.81-2.939-1.291c-0.489-0.258-1.093-0.066-1.35,0.422
		C10.856,26.785,11.046,27.389,11.535,27.645z"/>
	<path d="M23.561,31.081c2.007,0.247,4.039,0.37,6.08,0.37c2.208,0,4.428-0.145,6.644-0.433c0.548-0.07,0.934-0.572,0.863-1.12
		s-0.571-0.933-1.121-0.862c-4.098,0.532-8.21,0.553-12.222,0.061c-0.54-0.068-1.047,0.322-1.115,0.87
		C22.623,30.516,23.013,31.014,23.561,31.081z"/>
	<path d="M40.751,29.194c0.122,0.445,0.524,0.737,0.964,0.737c0.087,0,0.176-0.011,0.264-0.035c2.211-0.604,4.192-1.363,5.887-2.258
		c0.488-0.259,0.675-0.863,0.417-1.352c-0.257-0.488-0.863-0.674-1.351-0.418c-1.566,0.827-3.41,1.533-5.48,2.098
		C40.92,28.112,40.606,28.661,40.751,29.194z"/>
	<path d="M54.573,31.321c0-2.317-1.25-4.54-3.625-6.46c0.069-0.376,0.104-0.753,0.104-1.127c0-2.943-2.044-5.686-5.772-7.766
		c-0.088-2.037-0.703-8.591-4.897-12.413C38.017,1.4,34.942,0.492,31.234,0.86c-0.343,0.034-0.644,0.242-0.797,0.551
		c-0.153,0.31-0.136,0.676,0.044,0.969c0.633,1.03,1.742,3.515,1.131,4.62c-0.263,0.477-0.929,0.724-1.979,0.734
		c-2.58,0.026-5.099,0.349-7.361,0.912c-0.305-0.429-0.641-0.841-1.021-1.221c-2.4-2.399-5.566-3.476-8.445-3.172
		c-0.437-0.83-1.08-1.714-2.032-2.464c-2.008-1.583-4.771-2.119-8.211-1.59c-0.546,0.084-0.921,0.594-0.837,1.14
		c0.083,0.547,0.6,0.922,1.14,0.837c2.858-0.437,5.096-0.045,6.65,1.168c0.537,0.419,0.935,0.902,1.245,1.384
		C9.722,5.11,8.764,5.698,7.952,6.51L7.038,7.424c-3.415,3.415-3.004,9.381,0.914,13.299c0.239,0.239,0.489,0.46,0.748,0.669
		c-0.308,0.779-0.465,1.564-0.465,2.341c0,0.375,0.035,0.752,0.103,1.127c-2.374,1.92-3.625,4.143-3.625,6.46
		c0,1.686,0.656,3.306,1.938,4.821l3.776,9.302l0.048,0.102c3.184,5.854,5.869,7.345,11.684,9.574
		c2.03,0.778,4.886,1.168,7.739,1.168c2.854,0,5.705-0.39,7.721-1.169c5.825-2.251,8.508-3.738,11.63-9.479L54.1,33.741
		l-0.002-0.002C54.411,32.944,54.573,32.133,54.573,31.321z M8.452,8.838l0.914-0.914c0.632-0.632,1.387-1.073,2.206-1.359
		c0.108,0.408,0.144,0.691,0.146,0.709c0.046,0.52,0.482,0.912,0.995,0.912c0.028,0,0.056-0.001,0.084-0.004
		c0.551-0.046,0.959-0.529,0.913-1.08c-0.004-0.042-0.036-0.383-0.161-0.895c0.073-0.002,0.143-0.019,0.216-0.019
		c2.09,0,4.323,0.901,6.071,2.65c0.439,0.438,0.807,0.927,1.118,1.445c0.002,0.003,0.001,0.007,0.003,0.01
		c0.637,1.068,0.971,2.244,1.03,3.422c0.002,0.047,0.006,0.094,0.007,0.142c0.011,0.366-0.003,0.732-0.046,1.095
		c-0.005,0.039-0.012,0.078-0.017,0.117c-0.1,0.744-0.314,1.473-0.637,2.159c-0.019,0.041-0.038,0.082-0.058,0.122
		c-0.162,0.328-0.349,0.646-0.562,0.951c-0.03,0.043-0.063,0.084-0.094,0.127c-0.224,0.307-0.468,0.604-0.743,0.88
		c-0.295,0.295-0.613,0.555-0.944,0.791c-0.027,0.019-0.053,0.041-0.08,0.059c-0.334,0.23-0.683,0.431-1.044,0.601
		c-0.019,0.009-0.037,0.018-0.056,0.026c-1.122,0.518-2.353,0.743-3.575,0.669c-0.029-0.002-0.057-0.002-0.086-0.004
		c-0.388-0.028-0.775-0.089-1.157-0.178c-0.036-0.009-0.072-0.018-0.108-0.027c-0.383-0.096-0.762-0.22-1.13-0.38
		c-0.016-0.007-0.032-0.016-0.048-0.023c-0.38-0.168-0.751-0.367-1.107-0.604c-0.003-0.002-0.007-0.002-0.009-0.004
		c-0.401-0.268-0.779-0.578-1.127-0.927C6.228,16.17,5.818,11.473,8.452,8.838z M10.054,26.062c0.337-0.249,0.483-0.684,0.365-1.086
		c-0.122-0.414-0.184-0.832-0.184-1.242c0-0.403,0.064-0.815,0.193-1.232c0.073,0.036,0.147,0.065,0.221,0.098
		c0.531,0.247,1.084,0.442,1.654,0.585c0.086,0.022,0.172,0.046,0.259,0.065c0.167,0.037,0.335,0.066,0.504,0.094
		c0.1,0.016,0.2,0.031,0.301,0.044c0.168,0.022,0.336,0.042,0.505,0.054c0.095,0.007,0.19,0.01,0.285,0.014
		c0.148,0.007,0.295,0.022,0.445,0.022c0.48,0,0.951-0.047,1.417-0.117c0.04-0.006,0.079-0.011,0.119-0.017
		c0.218-0.036,0.433-0.079,0.646-0.13c0.02-0.005,0.04-0.01,0.06-0.015c0.685-0.167,1.346-0.408,1.974-0.724
		c0.013-0.006,0.025-0.012,0.038-0.018c0.164-0.083,0.323-0.174,0.482-0.267c0.089-0.052,0.178-0.104,0.265-0.159
		c0.128-0.081,0.254-0.164,0.379-0.251c0.126-0.088,0.249-0.182,0.372-0.276c0.091-0.071,0.184-0.139,0.272-0.214
		c0.215-0.179,0.424-0.366,0.625-0.567c0.307-0.307,0.581-0.636,0.839-0.976c0.054-0.071,0.107-0.141,0.158-0.213
		c0.499-0.696,0.896-1.451,1.185-2.249c0.022-0.061,0.044-0.12,0.065-0.181c0.267-0.786,0.428-1.61,0.479-2.456
		c0.005-0.09,0.01-0.179,0.013-0.269c0.003-0.102,0.015-0.203,0.015-0.306c0-0.771-0.103-1.524-0.282-2.254
		c-0.007-0.027-0.013-0.054-0.02-0.082c-0.112-0.441-0.247-0.875-0.422-1.293c1.973-0.444,4.151-0.688,6.373-0.711
		c1.826-0.02,3.074-0.614,3.71-1.77c0.874-1.586,0.212-3.753-0.424-5.182c2.438,0.031,4.483,0.784,6.09,2.245
		c4.247,3.863,4.265,11.464,4.265,11.54c-0.001,0.374,0.207,0.719,0.539,0.892c3.365,1.751,5.219,3.979,5.219,6.274
		c0,0.409-0.062,0.827-0.184,1.242c-0.118,0.402,0.027,0.837,0.365,1.086c1.524,1.128,3.341,2.955,3.341,5.259
		c0,0.365-0.047,0.733-0.142,1.102c-0.02-0.01-0.042-0.012-0.062-0.021c-0.258-0.119-0.525-0.215-0.804-0.28
		c-0.034-0.008-0.069-0.012-0.103-0.019c-0.275-0.057-0.557-0.091-0.85-0.097c-0.023,0-0.045-0.004-0.068-0.004
		c-0.297-0.002-0.604,0.029-0.917,0.079c-0.061,0.01-0.122,0.019-0.184,0.031c-0.308,0.059-0.622,0.14-0.943,0.248
		c-0.059,0.02-0.118,0.044-0.177,0.065c-0.318,0.115-0.641,0.249-0.971,0.411c-0.024,0.012-0.047,0.021-0.072,0.033
		c-0.342,0.171-0.69,0.375-1.041,0.596c-0.072,0.045-0.143,0.089-0.214,0.135c-0.345,0.225-0.693,0.474-1.045,0.746
		c-0.068,0.052-0.135,0.108-0.203,0.162c-0.37,0.295-0.742,0.606-1.119,0.952c-2.661-1.808-6.366-0.61-9.137,1.786
		c-2.68-2.056-6.451-2.054-9.129,0.002c-0.21-0.179-0.426-0.35-0.645-0.515c-0.065-0.049-0.131-0.096-0.197-0.143
		c-0.164-0.119-0.33-0.233-0.498-0.343c-0.068-0.045-0.136-0.09-0.204-0.133c-0.228-0.143-0.458-0.28-0.692-0.406
		c-0.002-0.001-0.003-0.002-0.005-0.003c-0.236-0.127-0.476-0.241-0.716-0.348c-0.069-0.031-0.137-0.058-0.206-0.087
		c-0.181-0.076-0.363-0.146-0.545-0.211c-0.07-0.025-0.139-0.05-0.208-0.072c-0.243-0.079-0.487-0.151-0.73-0.207
		c0,0-0.001,0-0.001,0c-0.245-0.057-0.49-0.098-0.734-0.13c-0.065-0.009-0.13-0.014-0.196-0.02c-0.184-0.019-0.368-0.03-0.55-0.034
		c-0.042-0.001-0.084-0.008-0.125-0.008c-0.025,0-0.05,0.005-0.075,0.005c-0.479,0.006-0.948,0.068-1.402,0.191
		c-0.062,0.017-0.122,0.038-0.184,0.057c-0.17,0.053-0.337,0.115-0.501,0.187c-0.062,0.027-0.123,0.052-0.184,0.082
		c-0.214,0.104-0.425,0.218-0.628,0.355c-0.237-0.217-0.473-0.423-0.708-0.62c-0.076-0.063-0.15-0.121-0.225-0.182
		c-0.16-0.13-0.319-0.259-0.478-0.379c-0.087-0.066-0.174-0.128-0.26-0.191c-0.145-0.106-0.29-0.211-0.435-0.31
		c-0.091-0.062-0.182-0.121-0.272-0.18c-0.138-0.09-0.275-0.177-0.412-0.26c-0.092-0.055-0.184-0.109-0.275-0.161
		c-0.135-0.077-0.269-0.15-0.402-0.219c-0.089-0.047-0.179-0.093-0.268-0.136c-0.135-0.066-0.268-0.125-0.401-0.183
		c-0.085-0.037-0.17-0.075-0.254-0.109c-0.139-0.056-0.276-0.104-0.413-0.151c-0.075-0.026-0.151-0.055-0.225-0.078
		c-0.158-0.049-0.313-0.089-0.468-0.127c-0.051-0.012-0.103-0.029-0.153-0.04c-0.205-0.044-0.406-0.079-0.604-0.102
		c-0.04-0.005-0.079-0.004-0.119-0.008c-0.156-0.015-0.312-0.026-0.464-0.028C9.261,32,9.195,32.005,9.128,32.007
		c-0.122,0.004-0.243,0.008-0.362,0.021c-0.073,0.008-0.145,0.02-0.217,0.031c-0.11,0.017-0.219,0.036-0.325,0.06
		c-0.073,0.017-0.144,0.037-0.215,0.057c-0.103,0.03-0.206,0.063-0.306,0.1C7.635,32.302,7.567,32.33,7.5,32.359
		c-0.101,0.044-0.2,0.092-0.298,0.144c-0.062,0.033-0.124,0.065-0.185,0.102c-0.032,0.019-0.066,0.034-0.098,0.054
		c-0.136-0.443-0.205-0.89-0.205-1.338C6.714,29.017,8.53,27.19,10.054,26.062z M47.466,44.734c-2.816,5.16-5.02,6.376-10.567,8.52
		c-3.523,1.361-10.47,1.362-14.023-0.001c-5.535-2.123-7.739-3.341-10.616-8.613l-3.808-9.381c0-0.001,0-0.002-0.001-0.003
		l-0.385-0.946c2.469-1.394,6.513,2.378,7.347,3.199l0.702,0.69l0.702-0.69c2.213-2.179,5.911-0.121,7.857,1.795l0.705,0.694
		l0.702-0.698c2.137-2.127,5.617-2.127,7.756,0l0.705,0.701l0.706-0.701c1.777-1.769,5.034-3.654,7.241-2.206
		c0.178,0.117,0.351,0.249,0.514,0.411l0.704,0.7l0.705-0.697c0,0,0.001,0,0.001-0.001c0.109-0.108,0.274-0.268,0.482-0.459
		c0.019-0.018,0.042-0.038,0.062-0.056c0.084-0.076,0.173-0.156,0.269-0.241c0.045-0.039,0.094-0.081,0.141-0.122
		c0.08-0.069,0.16-0.138,0.247-0.21c0.062-0.052,0.129-0.106,0.194-0.159c0.079-0.064,0.158-0.128,0.241-0.194
		c0.077-0.061,0.157-0.122,0.238-0.182c0.079-0.06,0.158-0.119,0.239-0.179c0.088-0.065,0.179-0.129,0.27-0.192
		c0.08-0.056,0.161-0.111,0.243-0.166c0.095-0.064,0.191-0.126,0.289-0.188c0.084-0.053,0.168-0.104,0.253-0.155
		c0.099-0.06,0.2-0.118,0.301-0.174c0.087-0.048,0.174-0.094,0.261-0.139c0.101-0.052,0.202-0.104,0.304-0.151
		c0.091-0.043,0.182-0.081,0.274-0.119c0.1-0.042,0.2-0.084,0.299-0.121c0.095-0.035,0.19-0.063,0.285-0.092
		c0.096-0.03,0.191-0.061,0.287-0.084c0.103-0.025,0.204-0.041,0.306-0.058c0.086-0.015,0.172-0.033,0.257-0.042
		c0.119-0.012,0.234-0.01,0.351-0.009c0.066,0,0.133-0.006,0.197-0.001c0.355,0.026,0.693,0.122,1.007,0.3L47.466,44.734z"/>
</g>
<g>
</g>
<g>
</g>
<g>
</g>
<g>
</g>
<g>
</g>
<g>
</g>
<g>
</g>
<g>
</g>
<g>
</g>
<g>
</g>
<g>
</g>
<g>
</g>
<g>
</g>
<g>
</g>
<g>
</g>
</svg>
